<svg width="515" height="172" viewBox="0 0 515 172" fill="none" xmlns="http://www.w3.org/2000/svg"><path d="M16.34 19.478V2.538h110.109v16.94zM.61 44.888v-16.94h38.72v16.94zm0 25.41v-16.94h38.72v16.94zm0 25.41v-16.94h38.72v16.94zm0 25.41v-16.94h38.72v16.94zm0 25.41v-16.94h38.72v16.94zm102.849 0v-16.94h38.72v16.94zm0-25.41v-16.94h38.72v16.94zm0-25.41v-16.94h38.72v16.94zm0-25.41v-16.94h38.72v16.94zm0-25.41v-16.94h38.72v16.94zm-87.12 127.05v-16.94h110.11v16.94zm170.61-128.744v-16.94h38.72v16.94zm0-25.652V.602h38.72v16.94zm0 51.546v-16.94h38.72v16.94zm0 25.652V77.8h38.72v16.94zm0 25.652v-16.94h38.72v16.94zm0 25.894v-16.94h38.72v16.94zm102.85-103.092v-16.94h38.72v16.94zm0-25.652V.602h38.72v16.94zm0 51.546v-16.94h38.72v16.94zm0 25.652V77.8h38.72v16.94zm0 25.652v-16.94h38.72v16.94zm0 25.894v-16.94h38.72v16.94zm-83.49 25.652v-16.94h38.72v16.94zm32.186-25.652v-16.94h38.72v16.94zm0-25.894v-16.94h38.72v16.94zm32.186 51.546v-16.94h38.72v16.94zm102.608-127.05v-16.94h53.24v16.94zm88.33 101.64v-16.94h53.24v16.94zm-88.33-127.05V2.538h38.72v16.94zm102.85 152.46v-16.94h38.72v16.94zm-102.85 0v-16.94h38.72v16.94zm0-101.64v-16.94h38.72v16.94zm49.61 1.21v-16.94h22.99v16.94zm-49.61 24.2v-16.94h38.72v16.94zm60.5 1.21v-16.94h22.99v16.94zm-60.5 24.2v-16.94h38.72v16.94zm70.18 1.21v-16.94h24.2v16.94zm-70.18 24.2v-16.94h38.72v16.94zm102.85-101.64v-16.94h38.72v16.94zm0-25.41V2.538h38.72v16.94zm0 50.82v-16.94h38.72v16.94zm0 25.41v-16.94h38.72v16.94zm0 25.41v-16.94h38.72v16.94z" fill="#0E9CFF"/></svg>