<svg width="60" height="12" viewBox="0 0 60 12" fill="none" xmlns="http://www.w3.org/2000/svg">
  <g clip-path="url(#clip0_16191_206718)">
    <path d="M54.7005 9.23947C53.4215 9.23947 52.2848 8.21294 51.9918 6.79568H59.5862C59.5862 6.79568 59.6271 6.28212 59.6271 6.10048C59.6271 3.0924 57.4175 0.644531 54.7017 0.644531C51.986 0.644531 49.7764 3.09189 49.7764 6.10048C49.7764 9.10907 51.9736 11.4996 54.7017 11.4996C57.4299 11.4996 59.023 9.27348 59.4206 7.66184H57.1055C57.1055 7.66184 56.3693 9.23947 54.7005 9.23947ZM54.7017 2.90364C55.9282 2.90364 56.9929 3.80078 57.3575 5.13789H52.046C52.4093 3.80078 53.4744 2.90364 54.7017 2.90364Z" fill="#F3F1FF"/>
    <path d="M25.721 11.4996C23.0052 11.4996 20.875 9.07759 20.875 6.10048C20.875 3.12335 23.0845 0.644531 25.8003 0.644531C28.516 0.644531 30.7256 3.18831 30.7256 6.07156C30.7256 7.30003 30.7256 11.2291 30.7256 11.2291H28.8133V9.50792L28.6741 9.46731C28.3373 10.3817 27.1174 11.4996 25.7206 11.4996H25.721ZM25.8003 2.90364C24.2665 2.90364 23.0181 4.33003 23.0181 6.08371C23.0181 7.83743 24.266 9.23997 25.8003 9.23997C27.3345 9.23997 28.5825 7.82423 28.5825 6.08371C28.5825 4.34323 27.3345 2.90364 25.8003 2.90364Z" fill="#F3F1FF"/>
    <path d="M36.182 11.4996C33.4662 11.4996 31.3359 9.07759 31.3359 6.10048C31.3359 3.12335 33.5455 0.644531 36.2612 0.644531C38.977 0.644531 41.1865 3.18831 41.1865 6.07156C41.1865 7.30003 41.1865 11.2291 41.1865 11.2291H39.2743V9.50792L39.135 9.46731C38.7983 10.3817 37.5783 11.4996 36.1815 11.4996H36.182ZM36.2612 2.90364C34.7274 2.90364 33.4791 4.33003 33.4791 6.08371C33.4791 7.83743 34.727 9.23997 36.2612 9.23997C37.7955 9.23997 39.0434 7.82423 39.0434 6.08371C39.0434 4.34323 37.7955 2.90364 36.2612 2.90364Z" fill="#F3F1FF"/>
    <path d="M44.3973 11.2281L40.4727 0.916016H42.6201L45.4963 8.51234L48.3735 0.916016H50.5202L46.5958 11.2281H44.3973Z" fill="#F3F1FF"/>
    <path d="M6.98159 11.483C8.04959 11.483 8.91533 10.524 8.91533 9.3411C8.91533 8.15814 8.04959 7.19922 6.98159 7.19922C5.91363 7.19922 5.04785 8.15814 5.04785 9.3411C5.04785 10.524 5.91363 11.483 6.98159 11.483Z" fill="#F3F1FF"/>
    <path d="M12.0363 11.483C13.1042 11.483 13.97 10.524 13.97 9.3411C13.97 8.15814 13.1042 7.19922 12.0363 7.19922C10.9683 7.19922 10.1025 8.15814 10.1025 9.3411C10.1025 10.524 10.9683 11.483 12.0363 11.483Z" fill="#F3F1FF"/>
    <path d="M9.50607 0.5C4.25549 0.5 -0.00137404 5.30489 3.32703e-07 11.2302H2.42851C2.42851 6.78966 5.57214 3.18941 9.50607 3.18941C13.44 3.18941 16.5836 6.78966 16.5836 11.2302H19.0121C19.013 5.30489 14.7562 0.5 9.50607 0.5Z" fill="#F3F1FF"/>
  </g>
  <defs>
    <clipPath id="clip0_16191_206718">
      <rect width="60" height="11" fill="white" transform="translate(0 0.5)"/>
    </clipPath>
  </defs>
</svg>
