<svg width="78" height="18" viewBox="0 0 78 18" fill="none" xmlns="http://www.w3.org/2000/svg">
  <g clip-path="url(#clip0_16191_206727)">
    <mask id="mask0_16191_206727" style="mask-type:luminance" maskUnits="userSpaceOnUse" x="0" y="0" width="78" height="18">
      <path d="M77.9434 0.306641H0V17.699H77.9434V0.306641Z" fill="white"/>
    </mask>
    <g mask="url(#mask0_16191_206727)">
      <path fill-rule="evenodd" clip-rule="evenodd" d="M76.5135 10.1983C76.5135 9.1812 75.9144 8.41548 74.9688 8.41548C74.0231 8.41548 73.4234 9.1812 73.4234 10.1983C73.4234 11.2153 74.0231 11.981 74.9688 11.981C75.9163 11.9829 76.5135 11.2172 76.5135 10.1983ZM76.4671 7.73299V5.06857C76.4671 4.89262 76.585 4.73987 76.755 4.6954L78.1683 4.31836V13.3344H76.6004V12.5688C76.2062 13.143 75.4983 13.4794 74.6125 13.4794C72.7934 13.4794 71.728 12.0196 71.728 10.2002C71.728 8.3807 72.7934 6.9209 74.6125 6.9209C75.4963 6.91897 76.1444 7.30179 76.4671 7.73299ZM66.8208 7.06204V7.82775C67.1087 7.28827 67.7548 6.91704 68.6882 6.91704C70.1968 6.91704 70.9988 7.92244 70.9988 9.41902V13.3344H69.2995V9.6124C69.2995 8.88147 68.9884 8.37877 68.2341 8.37877C67.4083 8.37877 66.9541 8.90472 66.9541 9.74387V13.3344H65.2548V7.06204H66.8208ZM61.2811 13.4794C59.4501 13.4794 58.4311 12.6886 58.4311 10.6545V7.06204H60.1307V10.6778C60.1307 11.5517 60.5252 11.9577 61.2792 11.9577C62.0333 11.9577 62.4277 11.5498 62.4277 10.6778V7.06204H64.1273V10.6526C64.1312 12.6886 63.1122 13.4794 61.2811 13.4794ZM52.82 10.1983C52.82 11.3235 53.5142 11.981 54.4113 11.981C55.3085 11.981 56.0026 11.3216 56.0026 10.1983C56.0026 9.07484 55.3085 8.41548 54.4113 8.41548C53.5161 8.41548 52.82 9.07291 52.82 10.1983ZM54.4132 13.4794C52.4024 13.4794 51.1204 11.9829 51.1204 10.2002C51.1204 8.41748 52.4004 6.9209 54.4132 6.9209C56.4241 6.9209 57.706 8.41748 57.706 10.2002C57.7041 11.9829 56.4241 13.4794 54.4132 13.4794ZM45.9405 10.1983C45.9405 11.2153 46.5399 11.981 47.4854 11.981C48.4309 11.981 49.0303 11.2153 49.0303 10.1983C49.0303 9.1812 48.4309 8.41548 47.4854 8.41548C46.5399 8.41548 45.9405 9.1812 45.9405 10.1983ZM45.9888 12.6654V15.2737C45.9888 15.4497 45.8709 15.6024 45.7008 15.6469L44.2893 16.0182V7.06204H45.8574V7.82775C46.2518 7.25348 46.9595 6.91704 47.8451 6.91704C49.6645 6.91704 50.7299 8.37683 50.7299 10.1963C50.7299 12.0158 49.6645 13.4756 47.8451 13.4756C46.9575 13.4794 46.3118 13.0966 45.9888 12.6654ZM39.2408 9.76706V13.3344H37.5413V9.6124C37.5413 8.91825 37.2899 8.37877 36.5358 8.37877C35.745 8.37877 35.3138 8.89313 35.3138 9.73227V13.3364H33.6143V7.06204H35.1823V7.82775C35.4704 7.28827 36.0931 6.91704 36.9902 6.91704C37.8409 6.91704 38.45 7.25155 38.8097 7.80256C39.3607 7.19158 39.9949 6.91704 40.8921 6.91704C42.4002 6.91704 43.1659 7.95922 43.1659 9.41902V13.3344H41.4663V9.6124C41.4663 8.91825 41.215 8.37877 40.4609 8.37877C39.6585 8.37877 39.2408 8.89313 39.2408 9.76706ZM27.9432 10.1983C27.9432 11.3235 28.6374 11.981 29.5345 11.981C30.4317 11.981 31.1258 11.3216 31.1258 10.1983C31.1258 9.07484 30.4317 8.41548 29.5345 8.41548C28.6374 8.41548 27.9432 9.07291 27.9432 10.1983ZM29.5345 13.4794C27.5236 13.4794 26.2417 11.9829 26.2417 10.2002C26.2417 8.41748 27.5217 6.9209 29.5345 6.9209C31.5473 6.9209 32.8273 8.41748 32.8273 10.2002C32.8273 11.9829 31.5454 13.4794 29.5345 13.4794ZM17.4229 9.07291C17.4229 6.41624 19.2539 4.6548 21.696 4.6548C23.8151 4.6548 25.4915 5.91159 25.8144 7.98241H23.9466C23.6952 6.91704 22.8329 6.31763 21.696 6.31763C20.1395 6.31763 19.2655 7.39462 19.2655 9.07098C19.2655 10.7473 20.1395 11.8243 21.696 11.8243C22.8329 11.8243 23.6952 11.2249 23.9466 10.1595H25.8144C25.4915 12.2304 23.8151 13.4871 21.696 13.4871C19.2539 13.491 17.4229 11.7315 17.4229 9.07291Z" fill="#F3F1FF"/>
      <path fill-rule="evenodd" clip-rule="evenodd" d="M0.698005 13.8616C0.264893 13.5966 0 13.1249 0 12.6183V9.78951C0 9.68123 0.029003 9.57688 0.0831417 9.48405C0.251359 9.19399 0.624531 9.09543 0.914559 9.26555L7.29911 12.9876C7.67227 13.2061 7.90236 13.6044 7.90236 14.0375V16.9687C7.90236 17.1021 7.86558 17.2356 7.79601 17.3496C7.58524 17.6938 7.13665 17.8021 6.79247 17.5913L0.698005 13.8616ZM10.2148 8.49018C10.588 8.70868 10.8181 9.10703 10.8181 9.54009V15.4876C10.8181 15.6636 10.7233 15.826 10.5706 15.9111L9.17265 16.6981C9.15525 16.7077 9.13593 16.7155 9.1166 16.7213V13.4188C9.1166 12.9914 8.89231 12.5951 8.52494 12.3747L2.9177 9.02V5.29215C2.9177 5.18387 2.9467 5.07946 3.00084 4.98665C3.16905 4.69662 3.54223 4.59801 3.83226 4.76816L10.2148 8.49018ZM13.0088 4.09723C13.3839 4.31378 13.614 4.71595 13.614 5.14907V13.8364C13.614 14.0143 13.5154 14.1786 13.3588 14.2637L12.0343 14.9791V8.93104C12.0343 8.50377 11.81 8.10929 11.4446 7.88886L5.71358 4.45106V0.914633C5.71358 0.806356 5.74258 0.701945 5.79479 0.609135C5.96301 0.319106 6.33618 0.220496 6.62622 0.388714L13.0088 4.09723Z" fill="#F3F1FF"/>
    </g>
  </g>
  <defs>
    <clipPath id="clip0_16191_206727">
      <rect width="77.9434" height="17.3923" fill="white" transform="translate(0 0.304688)"/>
    </clipPath>
  </defs>
</svg>
