<svg width="78" height="16" viewBox="0 0 78 16" fill="none" xmlns="http://www.w3.org/2000/svg">
  <path opacity="0.8" d="M2.00098 10.5157V14.8827C2.00098 15.1515 2.2285 15.2631 2.29928 15.2885C2.37006 15.3189 2.60769 15.3849 2.82003 15.1871L6.12373 12.0122C6.40507 11.7419 6.67659 11.4577 6.88062 11.1252C6.97666 10.9689 7.01649 10.8809 7.01649 10.8809C7.21874 10.47 7.21874 10.0744 7.02147 9.67876C6.72836 9.09042 5.98001 8.4919 4.85249 7.92383L2.92622 8.99911C2.35491 9.32372 2.00098 9.89688 2.00098 10.5157Z" fill="#F3F1FF"/>
  <path d="M0.101562 0.802164V5.38225C0.101562 5.95541 0.48582 6.46261 1.03187 6.6249C2.89245 7.16253 6.13329 8.31899 6.91699 10.0181C7.01805 10.2413 7.07871 10.4594 7.09909 10.6876C7.6198 9.73918 7.85743 8.64865 7.74621 7.54293C7.59448 5.97568 6.76527 4.55044 5.47099 3.64253L0.854906 0.411611C0.774004 0.350746 0.67794 0.320312 0.58188 0.320312C0.500978 0.320312 0.430197 0.335529 0.354361 0.376106C0.202675 0.462331 0.101562 0.619569 0.101562 0.802164Z" fill="#F3F1FF"/>
  <path opacity="0.8" d="M14.2889 10.5157V14.8827C14.2889 15.1515 14.0615 15.2631 13.9906 15.2885C13.9199 15.3189 13.6821 15.3849 13.4699 15.1871L10.0893 11.9384C9.85915 11.7172 9.6394 11.4833 9.46605 11.2153C9.3288 11.0031 9.27344 10.8809 9.27344 10.8809C9.07118 10.47 9.07118 10.0744 9.26828 9.67876C9.56156 9.09042 10.3099 8.4919 11.4373 7.92383L13.3636 8.99911C13.9401 9.32372 14.2889 9.89688 14.2889 10.5157Z" fill="#F3F1FF"/>
  <path d="M16.192 0.802163V5.38225C16.192 5.95541 15.8077 6.46261 15.2616 6.6249C13.4011 7.16253 10.1603 8.31899 9.37659 10.0181C9.27536 10.2413 9.21466 10.4594 9.1945 10.6877C8.67375 9.73918 8.43615 8.64868 8.54738 7.54297C8.69893 5.97568 9.52814 4.55044 10.8226 3.64253L15.4387 0.411611C15.5195 0.350744 15.6156 0.320312 15.7116 0.320312C15.7925 0.320312 15.8634 0.335529 15.9391 0.376106C16.0908 0.462331 16.192 0.619565 16.192 0.802163Z" fill="#F3F1FF"/>
  <path d="M24.0234 1.79297H25.7906L29.8862 11.2658H30.0075L34.103 1.79297H35.8397V12.7144H34.5505V4.02278H34.4292L30.6749 12.7144H29.1884L25.4341 4.02278H25.3128V12.7144H24.0234V1.79297Z" fill="#F3F1FF"/>
  <path d="M37.2637 8.85472C37.2637 6.24572 38.8489 4.80469 41.2 4.80469C43.5436 4.80469 45.1362 6.24572 45.1362 8.85472C45.1362 11.4562 43.5436 12.8972 41.2 12.8972C38.8489 12.8972 37.2637 11.4562 37.2637 8.85472ZM38.6138 8.85472C38.6138 10.766 39.6528 11.805 41.2 11.805C42.7396 11.805 43.7786 10.766 43.7786 8.85472C43.7786 6.93586 42.7396 5.90439 41.2 5.90439C39.6528 5.90439 38.6138 6.93586 38.6138 8.85472Z" fill="#F3F1FF"/>
  <path d="M46.4111 4.98541H47.7005V5.9107H47.8217C48.0873 5.36464 48.5727 4.95508 49.733 4.95508H50.81V6.10787H49.7636C48.3149 6.10787 47.746 6.90423 47.746 8.47419V12.7138H46.4111V4.98541Z" fill="#F3F1FF"/>
  <path d="M51.8369 15.7472V4.985H53.1415V6.05437H53.2628C53.8392 5.15944 54.7797 4.81055 55.8717 4.81055C57.8818 4.81055 59.4211 6.17573 59.4211 8.85301C59.4211 11.5227 57.8818 12.8879 55.8717 12.8879C54.8025 12.8879 53.8694 12.5466 53.293 11.6895H53.1718V15.7472H51.8369ZM53.1263 8.85301C53.1263 10.7263 54.1276 11.7805 55.5986 11.7805C57.0778 11.7805 58.0788 10.7263 58.0788 8.85301C58.0788 6.97209 57.0778 5.91786 55.5986 5.91786C54.1276 5.91786 53.1263 6.97209 53.1263 8.85301Z" fill="#F3F1FF"/>
  <path d="M60.7002 1.79297H62.035V5.9416H62.1563C62.7099 5.12249 63.6277 4.81153 64.7122 4.81153C66.5097 4.81153 67.6475 5.72164 67.6475 7.61017V12.7144H66.3127V7.7391C66.3127 6.4801 65.6225 5.92642 64.4164 5.92642C63.0968 5.92642 62.035 6.70763 62.035 8.39892V12.7144H60.7002V1.79297Z" fill="#F3F1FF"/>
  <path d="M68.8477 8.85472C68.8477 6.24572 70.4328 4.80469 72.7839 4.80469C75.1276 4.80469 76.7202 6.24572 76.7202 8.85472C76.7202 11.4562 75.1276 12.8972 72.7839 12.8972C70.4328 12.8972 68.8477 11.4562 68.8477 8.85472ZM70.1978 8.85472C70.1978 10.766 71.2368 11.805 72.7839 11.805C74.3236 11.805 75.3626 10.766 75.3626 8.85472C75.3626 6.93586 74.3236 5.90439 72.7839 5.90439C71.2368 5.90439 70.1978 6.93586 70.1978 8.85472Z" fill="#F3F1FF"/>
</svg>
