<svg width="20" height="20" viewBox="0 0 20 20" fill="none" xmlns="http://www.w3.org/2000/svg">
  <path fill-rule="evenodd" clip-rule="evenodd" d="M16 7C17.6569 7 19 5.65685 19 4C19 2.34315 17.6569 1 16 1C14.3431 1 13 2.34315 13 4C13 4.30476 13.0454 4.5989 13.1299 4.87602L6.42233 8.22982C5.87653 7.48422 4.99481 7 4 7C2.34315 7 1 8.34315 1 10C1 11.6569 2.34315 13 4 13C4.99481 13 5.87654 12.5158 6.42233 11.7702L13.1299 15.124C13.0454 15.4011 13 15.6952 13 16C13 17.6569 14.3431 19 16 19C17.6569 19 19 17.6569 19 16C19 14.3431 17.6569 13 16 13C15.0052 13 14.1235 13.4842 13.5777 14.2298L6.87008 10.876C6.95456 10.5989 7 10.3048 7 10C7 9.69524 6.95456 9.4011 6.87008 9.12398L13.5777 5.77018C14.1235 6.51578 15.0052 7 16 7ZM16 6C17.1046 6 18 5.10457 18 4C18 2.89543 17.1046 2 16 2C14.8954 2 14 2.89543 14 4C14 5.10457 14.8954 6 16 6ZM16 18C17.1046 18 18 17.1046 18 16C18 14.8954 17.1046 14 16 14C14.8954 14 14 14.8954 14 16C14 17.1046 14.8954 18 16 18ZM6 10C6 11.1046 5.10457 12 4 12C2.89543 12 2 11.1046 2 10C2 8.89543 2.89543 8 4 8C5.10457 8 6 8.89543 6 10Z" fill="#0e9cff"/>
</svg>
