<svg width="20" height="20" viewBox="0 0 20 20" fill="none" xmlns="http://www.w3.org/2000/svg">
<g clip-path="url(#clip0_8382_60505)">
<path fill-rule="evenodd" clip-rule="evenodd" d="M10 17C13.866 17 17 13.866 17 10C17 6.13401 13.866 3 10 3C6.13401 3 3 6.13401 3 10C3 13.866 6.13401 17 10 17ZM18 10C18 14.4183 14.4183 18 10 18C5.58172 18 2 14.4183 2 10C2 5.58172 5.58172 2 10 2C14.4183 2 18 5.58172 18 10Z" fill="#0e9cff"/>
<path fill-rule="evenodd" clip-rule="evenodd" d="M5.62167 9.91547C7.95383 8.89938 9.50897 8.22952 10.2871 7.90587C12.5088 6.9818 12.9704 6.82128 13.2713 6.81597C13.3375 6.81481 13.4855 6.83121 13.5813 6.90899C13.6623 6.97466 13.6845 7.06337 13.6952 7.12564C13.7058 7.1879 13.7191 7.32974 13.7086 7.44057C13.5882 8.70556 13.0672 11.7754 12.8022 13.1922C12.69 13.7917 12.4692 13.9927 12.2555 14.0123C11.7909 14.0551 11.4381 13.7053 10.9881 13.4104C10.284 12.9488 9.88627 12.6615 9.20282 12.2111C8.41296 11.6906 8.92499 11.4045 9.37513 10.937C9.49293 10.8147 11.5399 8.95282 11.5795 8.78392C11.5844 8.7628 11.589 8.68406 11.5422 8.64248C11.4955 8.60091 11.4264 8.61513 11.3766 8.62643C11.306 8.64246 10.1812 9.38592 8.00217 10.8568C7.68289 11.0761 7.3937 11.1829 7.1346 11.1773C6.84896 11.1711 6.2995 11.0158 5.89103 10.883C5.39003 10.7201 4.99185 10.634 5.02652 10.3575C5.04458 10.2134 5.24296 10.0661 5.62167 9.91547Z" fill="#0e9cff"/>
</g>
<defs>
<clipPath id="clip0_8382_60505">
<rect width="16" height="16" fill="white" transform="translate(2 2)"/>
</clipPath>
</defs>
</svg>
