<svg xmlns="http://www.w3.org/2000/svg" width="14" height="14" viewBox="0 0 14 14" fill="none">
  <g clip-path="url(#clip0_21088_39462)">
    <mask id="path-1-inside-1_21088_39462" fill="white">
      <path d="M14 7C14 5.52175 13.532 4.08144 12.6631 2.8855C11.7942 1.68957 10.569 0.79941 9.16312 0.342604C7.75722 -0.114202 6.24278 -0.114201 4.83688 0.342604C3.43098 0.79941 2.20578 1.68957 1.33688 2.8855C0.467984 4.08144 -1.29233e-07 5.52175 0 7C1.29233e-07 8.47826 0.467985 9.91856 1.33688 11.1145C2.20578 12.3104 3.43098 13.2006 4.83688 13.6574C6.24279 14.1142 7.75722 14.1142 9.16312 13.6574L8.7305 12.3259C7.60577 12.6914 6.39423 12.6914 5.26951 12.3259C4.14478 11.9605 3.16462 11.2483 2.46951 10.2916C1.77439 9.33485 1.4 8.1826 1.4 7C1.4 5.8174 1.77439 4.66515 2.4695 3.7084C3.16462 2.75166 4.14478 2.03953 5.2695 1.67408C6.39423 1.30864 7.60577 1.30864 8.73049 1.67408C9.85522 2.03953 10.8354 2.75166 11.5305 3.7084C12.2256 4.66515 12.6 5.8174 12.6 7H14Z"/>
    </mask>
    <path d="M14 7C14 5.52175 13.532 4.08144 12.6631 2.8855C11.7942 1.68957 10.569 0.79941 9.16312 0.342604C7.75722 -0.114202 6.24278 -0.114201 4.83688 0.342604C3.43098 0.79941 2.20578 1.68957 1.33688 2.8855C0.467984 4.08144 -1.29233e-07 5.52175 0 7C1.29233e-07 8.47826 0.467985 9.91856 1.33688 11.1145C2.20578 12.3104 3.43098 13.2006 4.83688 13.6574C6.24279 14.1142 7.75722 14.1142 9.16312 13.6574L8.7305 12.3259C7.60577 12.6914 6.39423 12.6914 5.26951 12.3259C4.14478 11.9605 3.16462 11.2483 2.46951 10.2916C1.77439 9.33485 1.4 8.1826 1.4 7C1.4 5.8174 1.77439 4.66515 2.4695 3.7084C3.16462 2.75166 4.14478 2.03953 5.2695 1.67408C6.39423 1.30864 7.60577 1.30864 8.73049 1.67408C9.85522 2.03953 10.8354 2.75166 11.5305 3.7084C12.2256 4.66515 12.6 5.8174 12.6 7H14Z" stroke="#F3F805" stroke-width="4" mask="url(#path-1-inside-1_21088_39462)"/>
  </g>
  <defs>
    <clipPath id="clip0_21088_39462">
      <rect width="14" height="14" fill="white"/>
    </clipPath>
  </defs>
</svg>