<svg width="100%" height="100%" viewBox="0 0 399 804" fill="none" xmlns="http://www.w3.org/2000/svg">
<path d="M345.107 320.077C342.75 326.768 340.435 333.473 338.025 340.143C335.723 346.516 333.877 353.131 330.859 359.153C321.496 377.836 312.161 396.565 301.882 414.748C292.416 431.492 281.404 447.355 271.706 463.975C263.609 477.85 255.904 492.01 249.006 506.511C243.619 517.835 239.007 529.657 235.414 541.666C232.545 551.255 231.472 561.423 230.062 571.4C227.846 587.081 225.994 602.815 224.036 618.533C223.434 623.37 222.991 628.226 222.404 633.739C223.369 634.051 224.815 634.858 226.301 634.941C234.383 635.393 242.479 635.601 250.563 636.016C262.413 636.625 274.326 636.775 286.085 638.181C295.786 639.341 304.057 644.547 311.388 650.932C327.539 664.998 337.535 683.265 345.917 702.519C348.136 707.617 349.772 713.073 350.856 718.527C351.666 722.601 349.151 725.011 344.319 724.583C337.896 715.798 329.64 709.887 320.535 706.008C303.283 698.657 285.603 692.277 267.951 685.91C254.685 681.124 241.978 675.357 231.469 665.852C209.605 646.076 200.254 620.228 198.209 591.739C196.426 566.901 199.422 542.294 206.314 518.249C206.769 516.661 206.19 514.778 206.186 512.696C220.569 483.901 237.935 457.03 250.826 427.414C242.75 427.028 235.419 427.05 228.182 426.241C218.446 425.154 208.782 423.426 198.868 421.728C197.608 421.353 196.567 421.222 195.198 420.851C185.6 418.797 176.329 416.983 166.666 415.13C164.521 415.352 162.767 415.612 160.74 415.606C157.229 414.954 153.871 413.825 150.78 414.33C143.688 415.489 137.087 415.189 130.867 410.833C130.482 410.292 130.233 409.928 130.007 409.177C129.63 407.589 129.231 406.39 129.062 404.9C132.562 398.394 135.833 392.177 139.38 385.832C140.753 384.315 141.849 382.926 143.228 381.313C151.483 374.09 158.953 366.376 167.579 360.302C175.238 354.909 184.179 351.336 192.869 346.941C194.693 346.394 196.201 345.864 198.136 345.285C204.099 343.486 209.637 341.736 215.446 340.124C216.599 340.151 217.479 340.039 218.775 339.96C222.157 339.655 225.151 339.473 228.085 338.956C246.419 335.721 264.737 332.392 283.07 329.144C286.457 328.544 288.1 326.766 288.679 323.274C292.926 297.661 296.915 272.029 297.04 245.972C297.165 219.958 294.628 194.29 283.687 170.381C279.394 160.999 272.712 152.709 266.958 143.627C261.021 138.943 255.484 134.181 249.403 130.262C242.275 125.669 233.878 125.898 225.818 125.267C224.391 122.116 222.346 122.558 219.062 125.574C214.436 129.823 209.85 134.317 204.566 137.615C186.344 148.985 166.187 155.23 144.992 157.788C126.429 160.028 109.319 157.206 97.3213 140.638C96.7875 139.901 95.7323 139.541 94.6402 138.823C91.3893 132.452 87.0944 129.082 79.9581 131.45C80.0717 127.124 80.9742 122.993 80.0519 119.321C77.5387 109.314 67.4616 103.068 56.6835 104.056C45.6442 105.068 36.6351 114.422 35.2844 126.274C34.2379 135.456 40.5131 144.527 50.1588 147.88C51.2002 148.242 52.1152 148.967 53.0125 149.835C40.9775 164.146 31.9439 179.818 25.936 197.235C25.5747 198.283 24.7759 199.179 24.0978 199.697C23.6766 195.324 22.872 191.375 23.0828 187.481C23.8742 172.864 25.0094 158.266 25.9923 143.66C27.1152 126.972 31.7738 111.009 38.0465 95.7816C43.317 82.9871 50.354 70.7852 57.7412 59.0326C66.649 44.8609 78.6665 33.1476 92.765 24.2182C111.23 12.523 128 7.10007 148.5 3.00007C151 2.50007 156 2.00007 156 2.00007C171.5 -1.19209e-07 165.342 0.662281 181.5 1.00004C184.3 1.05856 209.372 3.5988 211.781 4.38988C222.334 7.8556 233.026 10.9932 243.332 15.0947C259.244 21.4276 273.194 31.26 285.283 43.1472C294.574 52.2838 302.422 62.928 310.589 73.1589C320.958 86.1477 327.998 101.172 334.404 116.283C339.555 128.433 343.085 141.351 346.445 154.161C350.713 170.435 353.563 187.023 354.07 204.385C354.046 219.793 354.29 234.739 353.987 249.674C353.551 271.184 350.306 292.358 345.494 313.31C344.995 315.481 345.218 317.818 345.107 320.077ZM239.135 348.956C235.424 349.667 231.712 350.377 227.453 350.705C220.945 352.686 214.437 354.666 207.101 356.771C195.951 357.99 187.373 364.286 178.286 371.041C172.794 375.684 166.883 379.929 161.969 385.119C159.031 388.221 160.89 393.067 164.967 394.907C167.96 396.259 171.182 397.711 174.375 397.904C185.153 398.559 195.996 399.349 206.752 398.824C220.898 398.133 234.933 396.015 247.549 388.719C258.66 382.293 267.797 374.126 271.399 361.198C272.936 355.683 270.483 350.474 264.955 348.939C256.714 346.65 248.313 345.682 239.135 348.956ZM246.627 101.999C253.787 102.458 260.812 101.471 266.781 97.4905C278.549 89.6444 283.956 81.2887 279.648 68.2312C278.022 63.3034 274.996 58.6347 271.801 54.4672C263.492 43.631 252.455 35.9077 241.043 28.6375C219.407 14.8535 195.248 9.63688 170.202 9.27762C151.286 9.00629 132.866 13.5161 115.651 21.7633C99.4202 29.5393 85.8946 40.7239 75.9201 55.7646C68.4833 66.9787 71.0512 81.4784 81.9264 89.0193C86.0422 91.8732 91.1813 93.8532 96.1275 94.7946C111.025 97.6299 125.908 95.6292 140.777 93.622C154.099 91.8236 167.508 89.2294 180.846 89.4094C192.796 89.5707 204.752 92.7783 216.611 95.1201C226.378 97.0488 236.006 99.6782 246.627 101.999ZM195.57 106.849C179.217 97.1008 161.196 95.7528 142.918 97.2598C128.927 98.4133 115.37 101.961 103.032 109.1C100.866 110.353 98.1289 112.046 100.183 114.822C101.089 116.046 104.248 116.439 106.082 115.985C111.884 114.55 117.517 112.447 123.263 110.766C137.277 106.666 151.51 104.185 166.083 106.932C175.713 108.747 185.21 111.266 194.788 113.369C197.548 113.975 200.385 114.232 203.186 114.649C203.379 114.185 203.572 113.722 203.765 113.258C201.242 111.245 198.719 109.232 195.57 106.849ZM297.304 110.966C294.34 111.234 291.247 111.052 288.432 111.849C276.741 115.159 269.113 127.684 271.377 139.383C273.804 151.921 284.641 160.956 295.927 159.85C309.141 158.556 319.8 147.48 320.023 134.813C320.255 121.625 312.008 112.617 297.304 110.966ZM294.262 105.548C294.582 105.633 294.963 105.877 295.212 105.78C298.105 104.651 301.093 103.675 303.766 102.15C304.367 101.808 304.231 98.4327 303.78 98.2704C300.983 97.2637 297.981 96.2281 295.085 96.3276C293.444 96.384 290.71 98.4695 290.575 99.8481C290.409 101.535 292.448 103.439 294.262 105.548ZM68.912 90.7732C65.5814 89.9165 62.721 90.3386 62.0888 94.2995C61.4383 98.3752 64.2857 99.9645 67.6411 100.604C70.9644 101.237 73.8401 100.039 74.6984 96.6452C75.6686 92.8089 73.1883 91.227 68.912 90.7732Z" fill="#67B1D4"/>
<path d="M128.103 801.893C123.392 802.037 118.612 799.422 117.394 794.868C117.254 794.346 117.123 793.811 117 793.26C122.111 790.115 127.168 787.839 131.722 784.807C136.666 781.516 141.661 778.014 145.72 773.737C155.855 763.056 159.372 749.158 162.701 735.373C166.888 718.031 170.493 700.483 180.637 685.344C187.899 674.507 190.552 662.778 189.241 649.468C193.741 639.932 191.224 631.007 189.256 621.932C187.469 613.688 185.435 605.382 184.858 597.011C182.777 566.826 193.353 538.472 206.5 512C206.598 513.746 206.955 516.413 206.5 518C199.608 542.045 196.717 566.662 198.5 591.5C200.545 619.988 209.637 645.725 231.5 665.5C242.009 675.005 254.425 681.092 267.691 685.878C285.343 692.245 303.248 698.649 320.5 706C329.605 709.88 338.302 715.87 344.334 724.584C337.377 724.954 329.671 724.897 321.844 724.678C314.339 723.605 307.63 722.713 300.897 722.064C299.535 721.932 298.085 722.716 296.675 723.078C280.551 722.611 265.113 718.607 250.327 712.655C235.401 706.648 222.232 697.612 212.102 685.73C209.652 696.25 208.014 707.017 204.563 717.169C200.221 729.943 193.635 741.795 184.337 751.817C176.587 760.171 168.913 768.639 160.607 776.417C152.851 783.68 144.296 790.086 136.121 796.904C135.299 797.589 134.505 798.307 133.754 799.059C132.157 800.661 130.364 801.824 128.103 801.893Z" fill="#4FA5CE"/>
<path d="M0.846288 330.118C0.937834 327.81 1.22999 325.503 1.96211 323.312C7.28279 307.389 16.3164 293.758 28.2995 281.924C29.2886 280.947 30.2783 279.971 31.9267 279.105C44.0716 285.748 55.4604 292.461 67.0869 298.733C72.4265 301.614 78.2328 303.629 83.9354 306.309C84.8498 307.049 85.6561 307.516 86.7008 308.258C97.5852 314.857 107.393 322.434 114.495 333.019C115.16 334.083 115.534 335.214 116.243 336.345C121.339 347.879 124.579 359.223 124.105 371.708C123.746 381.143 118.542 385.531 109.203 383.514C106.934 383.024 104.751 382.056 102.468 381.725C94.9916 380.64 87.4871 379.747 79.6084 378.676C77.0412 378.392 74.8589 378.213 72.2367 378.028C65.5091 378.026 59.2213 378.03 52.6037 377.91C51.1395 377.543 50.0052 377.301 48.5059 377.063C47.4124 377.071 46.6839 377.075 45.9554 377.08C35.6543 377.259 25.882 375.072 16.758 370.286C10.8882 367.208 6.13573 363.066 2.9977 357.462C1.30362 354.437 0.605937 350.367 0.446034 346.904C0.274639 343.191 0.284871 337.845 0.596968 334.142C0.699758 332.923 0.788649 331.571 0.846288 330.118ZM89.7806 332.435C88.8647 331.949 87.9489 331.464 86.4114 330.69C82.9427 328.457 79.474 326.223 75.8 323.344C62.8728 313.952 48.7392 306.994 32.9517 304.403C29.3269 303.809 24.3832 306.062 21.2807 308.546C14.6426 313.86 12.7302 329.527 16.5277 338.968C20.3473 348.465 27.68 354.175 37.2974 355.908C58.2148 359.678 79.2685 362.702 100.292 365.863C104.48 366.493 108.04 362.584 107.898 357.929C107.843 356.127 107.516 354.236 106.856 352.566C103.7 344.58 99.6781 337.267 90.567 333.772C90.3199 333.579 90.1169 333.346 89.7806 332.435Z" fill="#67B1D4"/>
<path d="M365 221C373.24 234.301 380.066 248.745 385.05 263.583C388.441 273.68 391.744 283.807 395.109 293.914C395.805 296.006 396.5 298 397 300C398.733 307.367 399.34 313.983 397.843 320.824C397.379 322.947 396.183 324.751 394.699 326.338C390.996 330.299 380.853 332.216 375 329.993C368.565 327.548 361.748 324.502 355 321.5C361.177 290.308 364.255 260.335 363.5 229C363.442 226.6 364.634 223.41 365 221Z" fill="#4FA5CE"/>
<path d="M365.02 220.623C364.697 223.391 363.964 225.809 364.021 228.209C364.776 259.544 361.516 290.479 355 321.5C351.931 321.289 348.432 320.577 345 320C344.721 317.767 344.956 315.539 345.455 313.368C350.268 292.415 353.512 271.242 353.948 249.732C354.251 234.797 354.007 219.851 354.031 204.443C357.696 209.406 361.336 214.835 365.02 220.623Z" fill="#3698C7"/>
<path d="M296.584 723.075C297.755 722.359 299.786 721.842 301.148 721.974C307.881 722.623 314.599 723.637 321.637 724.638C313.776 724.496 305.005 723.768 296.584 723.075Z" fill="#64AFD3"/>
<path d="M83.593 306.168C77.9984 303.76 72.4265 301.614 67.0869 298.733C55.4604 292.461 43.6931 285.888 31.9094 279.189C30.7127 272.277 30.1534 265.396 29.3078 258.644C28.8016 254.602 28.3658 250.548 28.028 246.489C27.3218 238.002 26.7593 229.504 26.0276 221.019C25.4513 214.338 24.7099 207.672 24.1112 200.572C24.7758 199.179 25.5746 198.282 25.9359 197.235C31.9439 179.818 40.9774 164.146 53.3877 149.671C59.8108 147.083 65.7821 144.971 72.1843 142.887C80.2142 142.61 84.6836 146.919 87.5026 153.324C88.7008 156.047 89.4345 158.996 90.181 161.893C97.074 188.646 120.689 199.807 141.692 199.645C161.449 199.494 178.422 190.925 192.373 177.002C200.366 169.025 207.394 160.071 215.479 152.197C225.612 142.328 237.773 137.16 252.255 139.987C257.274 140.967 262.167 142.592 267.118 143.922C272.712 152.709 279.394 160.998 283.687 170.381C294.628 194.289 297.165 219.958 297.04 245.971C296.915 272.029 292.926 297.661 288.679 323.274C288.1 326.766 286.457 328.544 283.07 329.144C264.737 332.392 246.419 335.721 228.084 338.956C225.151 339.473 222.157 339.655 218.657 339.609C217.243 337.638 216.471 335.977 215.467 334.472C202.833 315.549 190.118 296.68 177.52 277.734C165.098 259.054 152.793 240.296 140.402 221.595C139.736 220.59 138.753 219.794 137.377 218.321C119.265 247.988 101.312 277.143 83.593 306.168Z" fill="#D0E6F0"/>
<path d="M45.9919 376.564C46.7006 376.104 47.2772 376.204 48.3694 376.563C49.7614 378.759 50.7492 381.586 51.9857 383.265C55.8938 388.568 59.9456 393.766 63.6059 399.08C59.1694 400.997 57.5962 404.444 57.0004 408.656C54.6579 425.219 56.5632 441.57 60.2572 457.644C66.0487 482.843 73.9022 507.467 84.7016 530.985C90.5872 543.802 96.7539 556.701 104.581 568.364C115.584 584.757 133.358 586.553 147.172 574.335C156.082 566.454 162.478 556.77 167.347 546.086C178.244 522.181 186.6 497.409 189.492 471.209C190.662 460.606 191.984 449.558 186.858 439.002C191 433.124 195.21 427.31 199.253 421.734C208.948 423.188 218.446 425.154 228.182 426.241C235.419 427.05 242.75 427.028 250.826 427.414C237.936 457.03 220.569 483.901 206.186 512.696C192.945 539.504 183.036 566.858 185.117 597.043C185.694 605.414 187.729 613.72 189.516 621.964C191.483 631.039 194.77 640.254 190 650C185.554 654.763 180.777 655.758 175.114 653.543C171.204 652.013 167.002 651.23 162.931 650.113C157.931 647.175 152.748 644.505 147.974 641.237C140.282 635.973 132.448 630.789 125.425 624.704C116.237 616.743 107.219 608.44 99.1414 599.38C87.4595 586.276 76.899 572.237 70.7654 555.434C67.4054 546.23 63.2401 537.265 60.6017 527.865C57.4226 516.538 55.0595 504.936 53.0888 493.326C49.2126 470.491 49.0329 447.406 48.8341 424.292C48.7013 408.851 47.0131 392.452 45.9919 376.564Z" fill="#B7DAEB"/>
<path d="M246.161 101.998C236.006 99.678 226.378 97.0486 216.611 95.12C204.752 92.7781 192.796 89.5705 180.846 89.4092C167.508 89.2292 154.099 91.8234 140.777 93.6218C125.908 95.629 111.025 97.6298 96.1274 94.7944C91.1813 93.853 86.0421 91.873 81.9264 89.0191C71.0511 81.4782 68.4833 66.9785 75.9201 55.7644C85.8946 40.7238 99.4201 29.5391 115.651 21.7631C132.866 13.5159 151.286 9.00611 170.202 9.27744C195.248 9.6367 219.407 14.8533 241.043 28.6373C252.455 35.9076 263.492 43.6308 271.801 54.467C274.996 58.6346 278.022 63.3033 279.648 68.2311C283.956 81.2885 278.549 89.6442 266.781 97.4904C260.812 101.47 253.787 102.458 246.161 101.998ZM235.718 30.7773C232.617 29.176 229.586 27.4184 226.405 25.9988C205.507 16.6748 183.587 12.2131 160.785 14.2087C152.515 14.9325 144.294 17.7418 136.4 20.5736C132.719 21.8941 129.582 25.2651 126.783 28.2542C125.625 29.4917 125.189 32.5444 125.908 34.0742C126.594 35.5327 129.255 36.9501 130.969 36.861C135.073 36.6477 139.294 36.0223 143.178 34.705C158.171 29.6184 173.503 28.2349 188.954 31.1048C209.212 34.8676 228.922 40.4508 244.681 54.8539C249.7 59.4408 254.107 64.6899 258.998 69.4268C261.243 71.6022 263.799 73.625 266.564 75.0293C268.032 75.7751 270.841 75.7454 271.954 74.7921C273.027 73.8728 272.978 71.3007 272.884 69.4822C272.822 68.2599 271.875 67.0578 271.238 65.8939C263.02 50.8873 251.172 39.5181 235.718 30.7773ZM100.628 54.8015C104.911 51.9625 109.539 49.502 113.294 46.0835C114.646 44.853 114.883 40.7169 113.835 39.0038C112.782 37.282 109.215 35.7547 107.252 36.2275C103.749 37.0709 100.377 39.1452 97.3963 41.3167C92.5267 44.8643 92.3579 52.6547 100.628 54.8015Z" fill="#7ABAD9"/>
<path d="M215.174 339.986C209.636 341.736 204.099 343.486 197.816 345.131C178.577 337.168 160.083 329.309 141.271 321.314C140.726 290.512 140.177 259.529 139.628 228.546C140.07 228.483 140.511 228.42 140.953 228.356C165.693 265.566 190.433 302.776 215.174 339.986Z" fill="#B6F9F5"/>
<path d="M207.706 356.533C214.214 354.553 220.876 352.174 227.489 350.659C226.701 353.022 225.877 355.432 224.984 357.329C227.318 358.2 229.594 359.446 232.006 359.821C233.854 360.108 236.039 359.664 237.778 358.884C240.142 357.824 242.224 356.134 244.428 354.714C242.95 352.788 240.753 350.804 239.275 348.878C247.592 345.625 256.714 346.65 264.955 348.939C270.483 350.474 272.936 355.683 271.399 361.198C267.797 374.126 258.66 382.293 247.549 388.719C234.933 396.015 220.898 398.133 206.752 398.824C195.996 399.349 185.153 398.559 174.375 397.904C171.182 397.711 167.96 396.259 164.967 394.907C160.89 393.067 159.031 388.221 161.969 385.119C166.883 379.929 182.997 366.879 189.439 362.9C185.119 368.13 168.994 381.232 164.144 386.051C164.299 386.516 164.455 386.981 164.61 387.446C166.39 387.446 168.41 387.988 169.9 387.33C172.746 386.075 175.321 384.184 177.954 382.472C185.422 377.616 192.779 372.583 200.354 367.9C203.432 365.997 207.06 365.002 210.231 363.224C211.645 362.432 212.548 360.729 213.683 359.44C212.256 358.591 210.847 357.708 209.389 356.915C208.976 356.69 208.197 356.615 207.706 356.533Z" fill="#7ABAD9"/>
<path d="M266.958 143.627C262.167 142.592 257.274 140.967 252.255 139.987C237.773 137.16 225.612 142.328 215.48 152.197C207.394 160.072 200.366 169.025 192.373 177.002C178.422 190.926 161.449 199.494 141.692 199.646C120.69 199.807 97.074 188.646 90.181 161.894C89.4345 158.996 88.7009 156.048 87.5026 153.325C84.6836 146.919 80.2143 142.61 72.3744 142.608C74.7273 138.818 77.3209 135.336 79.9146 131.854C87.0944 129.082 91.3893 132.452 94.7865 139.158C98.2468 146.673 100.738 153.971 104.415 160.611C116.233 181.951 137.013 189.158 159.657 180.296C177.37 173.363 191.858 161.807 204.934 148.36C212.104 140.986 218.818 133.168 225.738 125.55C233.878 125.898 242.275 125.669 249.402 130.262C255.484 134.181 261.021 138.943 266.958 143.627Z" fill="#B7DAEA"/>
<path d="M225.818 125.267C218.818 133.168 212.104 140.986 204.934 148.36C191.858 161.807 177.37 173.363 159.657 180.296C137.013 189.158 116.233 181.951 104.415 160.611C100.738 153.971 98.2468 146.673 95.0663 139.341C95.7323 139.541 96.7875 139.901 97.3213 140.638C109.319 157.205 126.429 160.028 144.992 157.788C166.187 155.23 186.344 148.985 204.566 137.615C209.85 134.317 214.436 129.823 219.062 125.574C222.346 122.558 224.391 122.116 225.818 125.267Z" fill="#2484AC"/>
<path d="M167.058 415.169C176.329 416.983 185.839 418.431 195.278 420.817C178.934 444.228 162.182 467.433 145.488 490.524C145.062 489.651 144.805 489.367 144.797 489.075C144.258 470.459 143.655 451.843 143.367 433.223C143.342 431.59 145.039 429.398 146.551 428.367C153.264 423.788 160.202 419.538 167.058 415.169Z" fill="#C6B0F4"/>
<path d="M215.446 340.124C190.433 302.776 165.693 265.566 140.953 228.356C140.511 228.42 140.07 228.483 139.628 228.547C140.177 259.529 140.726 290.512 141.271 321.314C160.083 329.309 178.577 337.168 197.39 345.18C196.201 345.864 194.693 346.393 192.599 346.668C175.568 339.427 159.124 332.442 141.259 324.853C141.85 344.716 142.397 363.127 142.945 381.537C141.849 382.926 140.753 384.315 139.367 385.365C138.743 365.494 138.409 345.963 138.052 325.076C129.824 329.08 123.107 332.813 116.128 336.209C115.509 335.445 114.496 333.999 114.152 332.782C121.009 329.16 127.659 326.189 134.338 323.239C136.97 322.077 138.064 320.735 138.007 317.75C137.495 290.667 137.161 263.581 136.697 236.497C136.649 233.679 136.099 230.869 135.68 227.145C118.906 254.695 102.983 281.667 86.7606 308.311C85.9543 307.844 84.4759 306.938 83.5615 306.199C101.173 276.903 119.265 247.988 137.377 218.321C138.753 219.794 139.736 220.59 140.402 221.595C152.793 240.296 165.098 259.054 177.52 277.734C190.118 296.68 202.833 315.549 215.467 334.472C216.471 335.977 217.243 337.638 218.241 339.577C217.479 340.039 216.599 340.15 215.446 340.124Z" fill="#414FC3"/>
<path d="M115.957 336.237C122.845 332.476 129.824 329.08 138.052 325.076C138.409 345.963 138.743 365.494 139.09 385.493C135.832 392.177 132.562 398.394 128.728 404.795C112.107 396.247 96.05 387.514 79.9933 378.781C87.4871 379.747 94.9916 380.64 102.468 381.724C104.751 382.056 106.934 383.024 109.203 383.514C118.542 385.531 123.746 381.143 124.105 371.708C124.579 359.223 121.053 347.771 115.957 336.237Z" fill="#86A8EF"/>
<path d="M124.965 118.903C126.301 118.105 127.578 116.745 128.982 116.6C137.079 115.762 145.206 115.212 153.361 115.005C150.424 116.435 147.052 116.863 144.608 118.598C142.82 119.866 141.692 122.795 141.453 125.106C141.373 125.881 144.86 127.311 146.874 127.923C148.396 128.385 150.169 128.041 151.83 128.023C161.293 127.925 170.708 127.579 179.581 132.15C183.568 134.203 188.202 129.738 186.639 125.259C185.824 122.925 183.423 120.431 181.128 119.476C176.298 117.468 171.066 116.427 165.999 114.99C172.171 112.383 188.9 117.085 192.877 124.818C194.943 128.836 194.146 133.298 189.714 136.064C178.89 142.818 167.096 147.642 154.41 148.794C142.492 149.876 130.352 149.694 119.988 141.967C116.212 139.152 112.525 136.191 113.421 130.471C116.773 130.846 119.763 131.846 122.779 131.933C128.697 132.104 132.635 129.743 132.831 126.105C133.12 120.728 128.7 120.101 124.965 118.903Z" fill="#7ABAD9"/>
<path d="M167.06 415.167C160.596 419.574 153.264 423.788 146.551 428.367C145.039 429.398 143.342 431.59 143.367 433.223C143.655 451.843 144.258 470.459 144.797 489.075C144.806 489.367 145.062 489.651 145.488 490.524C162.182 467.433 178.454 444.005 195.125 420.834C196.326 420.633 197.993 421.376 199.253 421.752C195.428 427.571 191 433.124 186.561 439.206C172.95 458.046 159.712 476.363 146.535 494.725C143.371 499.135 142.845 499.269 139.8 495.362C118.437 467.965 97.1008 440.547 75.6983 413.18C71.918 408.347 67.8675 403.724 63.9418 399.004C59.9456 393.766 55.8938 388.568 51.9857 383.265C50.7491 381.586 49.8966 379.625 48.8696 377.427C50.0053 377.301 51.1396 377.542 52.8191 378.181C61.9548 383.145 70.5454 387.712 79.3981 392.538C88.8747 398.014 98.0778 403.25 107.307 408.44C117.263 414.04 127.18 419.714 137.27 425.064C139.115 426.042 141.416 425.614 143.989 425.75C149.787 422.395 155.253 418.842 160.723 415.576C162.477 415.316 166.606 414.971 167.06 415.167ZM59.1022 385.265C58.8412 385.347 58.5803 385.429 58.3193 385.511C58.5225 385.696 58.7258 385.88 59.0061 386.571C59.2412 386.809 59.4762 387.048 59.9506 387.921C86.6647 422.148 113.379 456.375 140.407 491.005C140.95 489.744 141.189 489.452 141.184 489.165C140.811 470.218 140.467 451.27 139.911 432.329C139.876 431.141 138.403 429.603 137.205 428.904C129.166 424.215 121.043 419.669 112.905 415.152C95.4746 405.477 78.019 395.848 60.2563 385.896C60.0356 385.69 59.7778 385.555 59.1022 385.265Z" fill="#424DC2"/>
<path d="M143.228 381.313C142.397 363.127 141.85 344.717 141.259 324.853C159.123 332.442 175.568 339.427 192.283 346.686C184.179 351.336 175.238 354.909 167.579 360.302C158.953 366.376 151.483 374.09 143.228 381.313Z" fill="#C8B2F4"/>
<path d="M195.883 107.034C198.719 109.231 201.242 111.245 203.765 113.258C203.572 113.721 203.379 114.185 203.186 114.649C200.384 114.232 197.548 113.975 194.788 113.369C185.21 111.265 175.713 108.747 166.083 106.932C151.51 104.185 137.277 106.666 123.263 110.766C117.517 112.447 111.884 114.55 106.082 115.985C104.248 116.439 101.089 116.046 100.183 114.822C98.1289 112.046 100.866 110.353 103.032 109.1C115.37 101.961 128.927 98.4132 142.918 97.2597C161.196 95.7526 179.217 97.1007 195.883 107.034Z" fill="#2484AC"/>
<path d="M165.538 114.998C171.066 116.427 176.298 117.468 181.128 119.476C183.423 120.431 185.824 122.925 186.639 125.259C188.202 129.738 183.568 134.203 179.581 132.15C170.708 127.579 161.293 127.925 151.83 128.023C150.169 128.041 148.396 128.385 146.874 127.923C144.86 127.311 141.373 125.881 141.453 125.106C141.692 122.795 142.82 119.867 144.608 118.598C147.052 116.863 150.424 116.435 153.698 115.234C157.691 115.017 161.385 115.011 165.538 114.998Z" fill="#ACD5E7"/>
<path d="M143.948 425.847C141.703 425.622 139.115 426.042 137.27 425.064C127.18 419.714 117.263 414.04 107.307 408.441C98.0778 403.25 88.3266 398.071 79.3758 392.545C82.1108 392.17 85.1732 392.304 87.5879 391.901C89.4703 391.586 91.3045 390.378 93.461 389.753C105.889 396.373 117.937 402.623 130.022 409.143C130.271 409.506 130.603 410.302 131.01 411.215C132.182 414.006 132.567 416.751 134.2 418.368C137.087 421.226 140.661 423.392 143.948 425.847Z" fill="#CCE2EF"/>
<path d="M297.753 110.972C312.008 112.617 320.255 121.625 320.023 134.813C319.8 147.48 309.141 158.555 295.927 159.85C284.641 160.956 273.804 151.921 271.377 139.383C269.113 127.684 276.741 115.159 288.432 111.849C291.247 111.052 294.34 111.234 297.753 110.972ZM298.936 114.377C282.289 113.024 270.691 126.695 275.544 141.95C278.604 151.569 287.498 157.267 297.488 156.008C307.576 154.736 316.058 145.34 316.635 134.796C317.178 124.875 310.802 117.237 298.936 114.377Z" fill="#3196C5"/>
<path d="M207.289 356.382C208.194 356.402 208.976 356.69 209.389 356.915C210.847 357.708 212.256 358.591 213.683 359.44C212.548 360.729 211.645 362.432 210.231 363.225C207.06 365.002 203.432 365.997 200.354 367.9C192.779 372.583 185.422 377.616 177.954 382.472C175.321 384.184 172.746 386.075 169.9 387.33C168.41 387.988 166.39 387.446 164.61 387.446C164.455 386.981 164.299 386.516 164.144 386.051C168.994 381.232 173.844 376.412 178.852 371.299C187.373 364.286 195.725 357.663 207.289 356.382Z" fill="#ACD5E7"/>
<path d="M79.958 131.45C77.3209 135.335 74.7273 138.818 71.9435 142.579C65.7821 144.971 59.8108 147.083 53.4641 149.36C52.1151 148.967 51.2001 148.242 50.1587 147.88C40.513 144.527 34.2378 135.456 35.2843 126.274C36.635 114.422 45.6441 105.068 56.6834 104.056C67.4615 103.068 77.5386 109.314 80.0518 119.321C80.9741 122.993 80.0716 127.124 79.958 131.45ZM39.9677 135.103C43.1112 142.256 48.6929 146.074 56.4002 145.805C65.4704 145.488 72.154 140.857 75.9172 132.559C80.1874 123.144 76.0695 112.954 66.5002 109.058C59.0971 106.044 52.0239 107.009 45.9579 112.219C39.1053 118.104 37.2525 125.677 39.9677 135.103Z" fill="#3397C6"/>
<path d="M124.578 118.936C128.7 120.101 133.12 120.728 132.831 126.105C132.635 129.743 128.696 132.104 122.779 131.933C119.763 131.846 116.773 130.846 113.446 130.064C113.162 122.974 115.613 120.561 124.578 118.936Z" fill="#ACD5E7"/>
<path d="M130.007 409.177C117.899 403.046 105.814 396.526 93.1622 389.642C85.9562 385.529 78.7868 381.742 72.147 377.994C74.3293 378.173 77.4291 378.145 79.9962 378.429C96.4378 387.267 112.107 396.247 128.497 405.085C129.231 406.39 129.63 407.589 130.007 409.177Z" fill="#3F4EC4"/>
<path d="M143.935 425.875C140.32 423.508 137.087 421.226 134.2 418.367C132.567 416.751 131.716 413.286 130.681 410.672C136.742 414.479 143.688 415.489 150.78 414.33C153.871 413.825 157.229 414.954 160.74 415.606C155.544 419.138 149.733 422.52 143.935 425.875Z" fill="#B4D7E9"/>
<path d="M238.475 348.896C239.12 348.795 239.774 349.005 240.259 349.442C241.617 350.666 243.366 351.989 244.737 353.253C245.596 354.046 245.379 355.363 244.339 355.897C242.202 356.994 239.559 358.085 237.778 358.884C236.039 359.664 233.854 360.108 232.005 359.821C230.184 359.538 227.019 358.975 224.573 358.341C223.441 358.048 222.963 356.82 223.65 355.874C224.665 354.477 225.994 352.893 226.849 351.505C227.157 351.005 227.627 350.611 228.2 350.482C231.499 349.742 234.991 349.446 238.475 348.896Z" fill="#ABD4E7"/>
<path d="M293.898 105.398C292.448 103.439 290.409 101.535 290.575 99.848C290.71 98.4693 293.444 96.3839 295.085 96.3274C297.981 96.2279 300.983 97.2635 303.78 98.2702C304.231 98.4325 304.367 101.808 303.766 102.15C301.093 103.675 298.105 104.651 295.212 105.779C294.963 105.876 294.582 105.633 293.898 105.398Z" fill="#2791C2"/>
<path d="M69.2959 90.8405C73.1882 91.2268 75.6686 92.8087 74.6984 96.6451C73.8401 100.039 70.9644 101.237 67.641 100.604C64.2857 99.9644 61.4383 98.3751 62.0888 94.2993C62.721 90.3384 65.5814 89.9163 69.2959 90.8405Z" fill="#2892C3"/>
<path d="M163 650C167.177 650.783 171.204 652.013 175.114 653.543C180.777 655.758 185.689 653.919 190 649.5C191.716 662.257 188.158 674.539 180.896 685.376C170.752 700.515 167.148 718.063 162.96 735.405C159.631 749.19 156.115 763.088 145.979 773.769C141.921 778.046 136.925 781.547 131.981 784.839C127.427 787.87 122.163 790.54 117.009 793.304C114.725 783.995 112.554 774.199 111.128 764.654C109.868 756.226 108.83 747.605 109.167 739.128C109.975 718.825 115.953 700.724 132.831 687.405C140.38 681.447 147.41 674.611 153.65 667.298C157.642 662.619 159.936 655.895 163 650Z" fill="#67B1D4"/>
<path d="M90.9005 333.884C99.6254 337.121 103.7 344.58 106.856 352.566C107.516 354.236 107.843 356.127 107.898 357.929C108.04 362.583 104.48 366.493 100.292 365.863C79.2685 362.702 58.2149 359.677 37.2975 355.908C27.6801 354.175 20.3474 348.465 16.5277 338.968C12.7303 329.527 14.6427 313.86 21.2808 308.545C24.3832 306.061 29.3269 303.809 32.9518 304.403C48.7392 306.993 63.8024 314.036 76.4672 323.694C72.6228 323.884 67.8606 320.739 63.9945 319.976C59.349 319.059 54.5339 318.85 49.7825 318.733C48.6714 318.706 46.6753 320.208 46.5884 321.145C46.4608 322.521 47.4658 324.193 48.4116 325.41C49.0494 326.23 50.3736 326.617 51.4644 326.971C69.2048 332.723 85.4613 341.124 99.4892 353.587C100.61 354.583 102.17 355.085 103.526 355.816C103.936 355.527 104.346 355.238 104.756 354.949C104.121 353.063 103.889 350.886 102.776 349.345C99.0034 344.119 94.8661 338.972 90.9005 333.884ZM35.5806 321.004C37.4982 320.048 39.8734 319.481 41.1486 317.98C41.8289 317.179 41.0711 314.433 40.1501 313.147C38.2711 310.522 30.1175 308.775 27.6441 310.653C26.4646 311.548 25.6054 315.19 26.2071 315.703C28.7263 317.849 31.8537 319.281 35.5806 321.004Z" fill="#7ABAD9"/>
<path d="M86.7008 308.257C102.684 281.339 118.906 254.695 135.68 227.145C136.099 230.869 136.649 233.679 136.697 236.497C137.161 263.581 137.495 290.667 138.007 317.75C138.064 320.735 136.97 322.077 134.338 323.239C127.658 326.189 121.14 329.504 114.237 332.826C106.861 322.693 97.5852 314.856 86.7008 308.257Z" fill="#EBC9C0"/>
<path d="M90.8768 333.843C95.0354 339.06 99.0034 344.119 102.776 349.345C103.889 350.886 104.121 353.063 104.756 354.949C104.346 355.238 103.936 355.527 103.526 355.816C102.17 355.085 100.61 354.583 99.4892 353.587C85.4613 341.124 69.2048 332.723 51.4644 326.971C50.3736 326.617 49.0494 326.23 48.4116 325.41C47.4658 324.193 46.4608 322.521 46.5884 321.146C46.6753 320.208 48.6714 318.706 49.7825 318.733C54.534 318.85 59.349 319.059 63.9945 319.976C67.8607 320.739 72.1842 322.207 76.3017 323.603C80.1354 325.894 83.1092 328.214 87.0458 330.862C88.1571 331.637 88.9977 331.939 89.7492 332.317C90.0501 332.468 90.2717 332.723 90.3814 333.041C90.4802 333.328 90.6139 333.651 90.8768 333.843Z" fill="#ACD5E7"/>
<path d="M72.2368 378.028C79.3165 381.782 86.7502 385.88 93.6131 389.892C92.0227 390.882 89.4703 391.586 87.5879 391.901C85.1731 392.304 83.7143 393.162 80.7172 393.278C71.6008 388.762 61.1377 382.483 52.3318 377.644C58.4043 377.368 65.5092 378.026 72.2368 378.028Z" fill="#B4D6E9"/>
<path d="M89.6252 334.281C88.1169 335.197 87.2354 333.03 85.7491 331.652C86.8469 332.027 89.9233 332.536 89.6252 334.281Z" fill="#7ABAD9"/>
<path d="M63.6058 399.081C67.8674 403.724 71.918 408.347 75.6983 413.18C97.1007 440.547 118.437 467.965 139.8 495.363C142.845 499.269 143.371 499.135 146.535 494.725C159.712 476.364 173.904 456.121 187.416 437.584C192.938 447.632 190.662 460.606 189.492 471.209C186.6 497.41 178.244 522.181 167.347 546.086C162.478 556.77 156.082 566.454 147.172 574.335C133.358 586.553 115.584 584.757 104.581 568.364C96.7538 556.701 90.5871 543.802 84.7015 530.985C73.9021 507.467 66.0486 482.843 60.2572 457.644C56.5631 441.57 54.6578 425.219 57.0004 408.656C57.5961 404.444 59.1693 400.997 63.6058 399.081Z" fill="#D0E6F0"/>
<path d="M236.037 30.954C251.172 39.5182 263.02 50.8875 271.238 65.894C271.875 67.058 272.822 68.26 272.884 69.4823C272.978 71.3008 273.027 73.8729 271.954 74.7922C270.841 75.7456 268.032 75.7753 266.564 75.0294C263.799 73.6252 261.243 71.6024 258.998 69.427C254.108 64.6901 249.7 59.441 244.681 54.8541C228.922 40.451 209.212 34.8678 188.954 31.1049C173.503 28.235 158.171 29.6185 143.178 34.7051C139.295 36.0225 135.073 36.6479 130.969 36.8612C129.255 36.9502 126.594 35.5328 125.908 34.0743C125.189 32.5445 125.625 29.4919 126.783 28.2543C129.582 25.2652 132.719 21.8942 136.4 20.5738C144.294 17.742 152.515 14.9326 160.785 14.2088C183.587 12.2133 205.507 16.675 226.405 25.999C229.586 27.4186 232.617 29.1762 236.037 30.954Z" fill="#ADD5E7"/>
<path d="M100.255 54.7488C92.3579 52.6549 92.5266 44.8645 97.3962 41.3169C100.377 39.1454 103.749 37.0711 107.251 36.2277C109.215 35.7549 112.782 37.2822 113.835 39.004C114.883 40.7171 114.646 44.8532 113.294 46.0837C109.539 49.5022 104.911 51.9627 100.255 54.7488Z" fill="#ACD5E7"/>
<path d="M59.2542 385.129C76.6994 394.777 95.4745 405.477 112.905 415.152C121.043 419.669 129.166 424.215 137.205 428.905C138.403 429.603 139.876 431.141 139.911 432.329C140.467 451.27 140.811 470.218 141.183 489.165C141.189 489.452 140.95 489.744 140.407 491.005C113.379 456.375 84.8752 420.555 58.2634 385.744C58.5053 384.975 59.1147 385.313 59.2542 385.129Z" fill="#EBC8C0"/>
<path d="M299.343 114.472C310.802 117.237 317.178 124.875 316.635 134.796C316.058 145.34 307.576 154.736 297.488 156.008C287.498 157.267 278.604 151.569 275.544 141.95C270.691 126.695 282.289 113.024 299.343 114.472ZM290.27 118.174C281.314 121.357 277.239 128.481 278.889 138.07C280.438 147.078 286.988 152.98 295.45 152.994C304.152 153.009 311.047 147.302 312.691 138.726C315.192 125.677 305.5 116.393 290.27 118.174Z" fill="#ECF3F7"/>
<path d="M39.8293 134.718C37.2525 125.678 39.1054 118.104 45.9579 112.219C52.0239 107.009 59.0971 106.044 66.5002 109.058C76.0695 112.954 80.1874 123.144 75.9173 132.56C72.1541 140.857 65.4704 145.488 56.4002 145.805C48.6929 146.075 43.1112 142.256 39.8293 134.718ZM48.2212 115.744C42.9048 122.377 42.2249 129.035 46.2594 134.954C50.1904 140.722 56.4516 143.043 62.7442 141.065C69.666 138.89 74.9551 132.093 74.8108 125.558C74.6774 119.519 69.6382 113.458 63.0503 111.569C57.608 110.008 52.8949 111.551 48.2212 115.744Z" fill="#EEF5F8"/>
<path d="M35.1695 320.99C31.8538 319.281 28.7263 317.849 26.2072 315.703C25.6054 315.19 26.4646 311.548 27.6441 310.653C30.1176 308.775 38.2711 310.522 40.1501 313.147C41.0711 314.433 41.8289 317.179 41.1486 317.98C39.8735 319.481 37.4983 320.048 35.1695 320.99Z" fill="#ABD4E7"/>
<path d="M290.698 118.121C305.5 116.393 315.192 125.677 312.691 138.726C311.047 147.302 304.152 153.009 295.45 152.994C286.988 152.98 280.438 147.078 278.889 138.07C277.239 128.481 281.314 121.357 290.698 118.121Z" fill="#04577A"/>
<path d="M48.4882 115.481C52.895 111.55 57.6081 110.008 63.0504 111.569C69.6382 113.458 74.6774 119.519 74.8108 125.558C74.9552 132.092 69.6661 138.89 62.7442 141.065C56.4517 143.043 50.1905 140.722 46.2595 134.954C42.2249 129.035 42.9048 122.377 48.4882 115.481Z" fill="#05587A"/>
</svg>
